<?xml version="1.0" standalone="no"?>
<!DOCTYPE svg PUBLIC "-//W3C//DTD SVG 20010904//EN"
 "http://www.w3.org/TR/2001/REC-SVG-20010904/DTD/svg10.dtd">
<svg version="1.0" xmlns="http://www.w3.org/2000/svg"
 width="754.000000pt" height="798.000000pt" viewBox="0 0 754.000000 798.000000"
 preserveAspectRatio="xMidYMid meet">
<metadata>
Created by potrace 1.15, written by Peter Selinger 2001-2017
</metadata>
<g transform="translate(0.000000,798.000000) scale(0.100000,-0.100000)"
fill="#000000" stroke="none">
<path d="M0 3989 l0 -3990 788 4 c837 5 955 8 1042 25 30 6 91 14 135 17 44 4
109 10 145 15 36 5 115 14 177 20 118 11 143 16 143 31 0 12 -219 11 -401 -2
-159 -12 -259 -6 -259 15 0 6 25 54 55 106 31 52 67 118 82 147 l26 51 -26 54
c-43 88 -94 227 -116 313 -5 22 -17 96 -26 164 -13 100 -14 147 -6 250 15 186
44 317 77 352 43 45 38 87 -27 199 -111 192 -197 387 -279 641 -44 134 -80
249 -80 256 0 6 -20 82 -45 169 -46 161 -88 256 -155 355 -121 179 -337 561
-373 659 -33 92 -87 323 -87 373 1 100 17 178 44 206 13 14 28 38 31 53 8 33
27 50 52 46 27 -5 28 30 4 151 -57 293 -120 697 -141 908 -14 133 -17 418 -7
558 9 128 42 393 56 456 5 24 19 94 32 154 12 61 33 144 46 185 74 220 98 280
213 523 50 106 223 356 322 466 l38 41 286 0 c265 0 288 -1 303 -18 23 -26 93
-72 110 -72 8 0 22 6 30 14 40 35 172 56 225 36 18 -6 34 -6 52 2 20 9 30 9
46 -1 17 -10 25 -10 44 -1 23 13 94 6 94 -9 0 -5 -7 -14 -15 -21 -8 -7 -15
-18 -15 -26 0 -20 19 -27 36 -13 23 19 30 1 11 -30 -9 -16 -17 -39 -17 -50 0
-35 -48 -18 -63 22 -11 29 -24 19 -23 -20 2 -49 25 -64 65 -40 16 9 38 17 48
17 10 0 24 5 30 11 15 15 9 -51 -7 -80 -12 -23 -8 -34 22 -67 19 -21 19 -21
-1 -27 -27 -7 -27 -29 -1 -52 19 -17 21 -17 40 0 19 17 19 16 22 -61 3 -73 5
-79 26 -82 28 -4 29 -33 1 -58 -13 -12 -18 -25 -15 -40 7 -28 -13 -43 -26 -20
-21 37 -54 7 -42 -40 4 -15 2 -24 -5 -24 -9 0 -9 -5 -1 -21 14 -26 12 -28 -31
-31 -38 -3 -62 -28 -57 -60 4 -27 28 -36 28 -11 0 10 5 25 11 33 8 12 9 10 4
-7 -4 -15 0 -26 15 -36 21 -14 21 -14 1 -20 -12 -3 -27 -22 -36 -43 -13 -33
-28 -46 -93 -81 -42 -23 -98 -57 -124 -75 -26 -18 -93 -64 -150 -102 -154
-104 -367 -328 -482 -509 -44 -68 -144 -266 -178 -352 -40 -100 -109 -358
-149 -557 -34 -172 -44 -325 -41 -618 3 -346 30 -556 108 -845 13 -50 24 -102
24 -116 0 -33 47 -173 110 -330 27 -68 50 -128 50 -132 0 -27 185 -458 230
-537 5 -8 41 -73 81 -145 40 -71 80 -141 89 -155 9 -14 36 -60 59 -103 24 -43
66 -115 95 -160 28 -45 70 -110 91 -144 130 -204 117 -188 160 -187 34 2 53
-7 125 -59 47 -33 90 -68 97 -77 29 -41 299 -182 433 -226 115 -38 527 -18
865 41 44 8 123 19 176 26 125 15 139 8 139 -62 0 -28 -7 -60 -15 -73 -14 -21
-14 -25 0 -36 13 -11 28 -10 88 4 78 18 86 19 197 30 84 9 255 49 297 71 16 7
63 30 105 49 42 20 80 41 83 46 3 6 24 10 46 10 32 0 45 6 64 29 14 16 39 31
57 35 30 6 31 8 16 20 -26 19 -22 31 22 72 33 31 40 44 40 76 0 43 -12 49 -28
14 -6 -14 -20 -30 -31 -36 -17 -8 -22 -6 -32 11 -16 30 3 87 50 158 40 60 141
222 141 226 0 13 104 155 114 155 18 0 40 44 90 185 26 72 50 139 55 150 21
49 63 198 81 285 11 52 26 124 34 160 78 358 125 631 123 710 0 14 5 122 13
240 26 436 -19 898 -115 1180 -34 97 -132 317 -170 380 -46 76 -85 161 -85
186 0 11 7 35 16 53 15 31 15 33 -10 69 -90 131 -113 157 -136 160 -58 6 -70
15 -121 84 -67 93 -260 309 -354 396 -41 38 -84 90 -101 121 -15 29 -37 57
-49 61 -11 5 -35 22 -53 39 -18 17 -39 31 -46 31 -8 0 -19 6 -25 14 -6 7 -25
16 -42 20 -24 5 -29 10 -24 25 7 22 -13 40 -25 21 -9 -15 -30 -5 -30 15 0 7
-12 28 -27 45 -18 22 -27 45 -27 69 -1 20 -11 49 -23 67 -14 20 -19 35 -13 44
5 8 6 18 4 22 -8 13 -52 9 -57 -4 -3 -8 -6 -5 -6 5 -1 10 3 26 8 36 8 13 4 24
-12 41 -22 23 -22 25 -5 42 13 13 18 32 17 66 -1 42 -2 44 -8 16 -12 -47 -19
-54 -57 -54 -31 0 -34 3 -34 28 0 34 34 65 61 57 15 -5 19 -2 19 16 0 12 -7
30 -15 39 -11 13 -15 48 -16 163 0 132 -7 172 -22 135 -4 -8 -8 -4 -13 10 -4
15 -12 21 -22 17 -12 -4 -14 1 -9 29 3 18 1 38 -4 43 -15 15 1 43 26 43 12 0
29 -7 36 -16 11 -14 11 -18 -3 -28 -11 -8 -14 -21 -11 -39 9 -46 35 -33 66 33
27 57 29 59 55 49 22 -9 29 -7 42 9 16 19 17 19 39 1 30 -24 52 -24 84 1 14
11 38 20 54 20 15 -1 180 -1 367 -1 l338 0 79 -77 c44 -42 84 -78 89 -80 10
-4 222 -238 286 -317 50 -61 212 -286 241 -335 57 -97 150 -279 191 -375 81
-189 209 -665 227 -840 3 -33 10 -87 16 -120 5 -33 19 -136 30 -230 11 -93 22
-178 25 -187 3 -9 7 -90 9 -179 4 -166 11 -197 40 -168 14 13 14 23 4 65 -6
27 -12 90 -13 139 -1 50 -4 96 -6 104 -9 26 16 21 48 -10 45 -44 81 -127 93
-216 13 -95 13 -350 0 -418 -5 -27 -16 -88 -25 -135 -8 -47 -20 -107 -26 -135
-5 -27 -15 -77 -20 -110 -6 -33 -20 -91 -32 -129 l-21 -69 18 -261 c20 -282
26 -775 13 -995 -11 -189 -45 -372 -154 -816 -51 -206 -87 -331 -115 -393 -10
-23 -19 -65 -19 -92 0 -81 -88 -463 -117 -508 -8 -13 -37 -33 -65 -45 l-50
-20 37 -32 c38 -31 38 -31 31 -88 -8 -65 -22 -77 -85 -77 -53 0 -59 -14 -15
-39 34 -21 35 -23 29 -64 -7 -39 -31 -130 -71 -257 -9 -30 -29 -113 -44 -184
-31 -142 -42 -159 -112 -171 -38 -7 -62 -35 -29 -35 38 0 81 -22 81 -41 0 -19
20 -19 755 -19 l755 0 0 3990 0 3990 -3770 0 -3770 0 0 -3991z m3188 3830 c7
-28 12 -58 12 -67 -1 -15 -2 -15 -15 2 -13 18 -15 17 -39 -9 -19 -20 -25 -37
-23 -63 1 -27 -2 -37 -15 -40 -24 -5 -43 35 -27 55 11 13 10 18 -9 33 -25 21
-29 50 -7 50 8 0 15 7 15 15 0 8 9 15 20 15 11 0 20 4 20 8 0 11 39 52 49 52
4 0 13 -23 19 -51z m-253 -3293 c15 -11 17 -18 9 -26 -19 -19 -433 -134 -463
-128 -13 3 -16 18 -17 76 -1 91 -18 86 281 90 138 2 174 0 190 -12z m-685 -55
c5 -11 10 -28 10 -38 1 -10 14 -34 30 -52 21 -25 26 -37 18 -42 -41 -25 -354
5 -390 38 -27 24 -13 33 120 75 136 42 196 48 212 19z m915 -925 c18 -13 17
-15 -25 -34 -89 -40 -365 -121 -376 -110 -3 4 -7 38 -9 77 l-4 71 182 3 c100
1 189 3 198 5 8 1 24 -4 34 -12z m-644 -23 c1 -10 0 -28 -1 -41 -1 -13 8 -41
20 -64 13 -25 18 -44 12 -50 -11 -11 -209 15 -289 38 -29 9 -63 24 -75 34
l-23 19 39 16 c22 9 65 22 95 27 31 6 79 17 106 24 76 19 115 18 116 -3z m849
-723 c14 -22 -21 -45 -100 -65 -119 -31 -169 -38 -185 -25 -19 16 -30 69 -16
83 28 28 284 34 301 7z m-515 -85 c0 -39 -1 -40 -43 -49 -27 -6 -71 -5 -118 2
-77 10 -113 27 -95 45 13 13 178 45 221 44 34 -2 35 -3 35 -42z"/>
<path d="M5371 989 c-1 -17 -9 -18 -151 -19 -56 -1 -255 -37 -275 -50 -5 -4
-37 -12 -70 -19 -33 -7 -70 -18 -82 -23 -12 -6 -33 -8 -46 -4 -16 4 -29 1 -37
-9 -7 -8 -22 -15 -34 -15 -19 0 -144 -58 -170 -79 -6 -5 -36 -14 -66 -22 -30
-7 -60 -19 -67 -27 -16 -19 -5 -42 21 -42 49 0 311 58 521 115 114 31 194 48
404 85 30 5 62 17 72 26 17 15 17 19 5 33 -8 9 -16 27 -19 41 -2 14 -5 18 -6
9z"/>
<path d="M5420 310 c-8 -5 -28 -10 -44 -10 -32 0 -103 -29 -247 -100 -53 -26
-111 -51 -130 -55 -19 -4 -40 -12 -46 -17 -7 -6 -60 -23 -118 -38 -57 -16
-110 -32 -116 -35 -6 -4 -36 -9 -66 -10 -30 -2 -60 -8 -67 -14 -7 -6 -24 -10
-36 -9 -13 2 -25 -3 -27 -9 -4 -10 97 -13 484 -13 436 1 484 2 455 15 -34 15
-34 15 -27 67 9 63 12 238 5 238 -3 0 -12 -5 -20 -10z"/>
</g>
</svg>
